<?xml version="1.0" encoding="UTF-8" standalone="no"?>
<svg
   viewBox="0 0 128.56894 133.09601"
   version="1.1"
   id="svg27"
   sodipodi:docname="icon.svg"
   width="128.56894"
   height="133.09601"
   inkscape:version="1.2.1 (9c6d41e410, 2022-07-14)"
   inkscape:export-filename="icon.png"
   inkscape:export-xdpi="96"
   inkscape:export-ydpi="96"
   xmlns:inkscape="http://www.inkscape.org/namespaces/inkscape"
   xmlns:sodipodi="http://sodipodi.sourceforge.net/DTD/sodipodi-0.dtd"
   xmlns="http://www.w3.org/2000/svg"
   xmlns:svg="http://www.w3.org/2000/svg">
  <sodipodi:namedview
     id="namedview29"
     pagecolor="#ffffff"
     bordercolor="#000000"
     borderopacity="0.25"
     inkscape:showpageshadow="2"
     inkscape:pageopacity="0.0"
     inkscape:pagecheckerboard="0"
     inkscape:deskcolor="#d1d1d1"
     showgrid="false"
     inkscape:zoom="3.0878378"
     inkscape:cx="235.76368"
     inkscape:cy="110.91904"
     inkscape:window-width="2400"
     inkscape:window-height="1271"
     inkscape:window-x="2391"
     inkscape:window-y="246"
     inkscape:window-maximized="1"
     inkscape:current-layer="g22" />
  <defs
     id="defs9">
    <style
       id="style2">.cls-1{fill:#fff;}.cls-2{isolation:isolate;}.cls-3{fill:#1b1b1b;}.cls-4{mix-blend-mode:soft-light;opacity:.43;}.cls-5{fill:url(#Degradado_sin_nombre);}</style>
    <linearGradient
       id="Degradado_sin_nombre"
       x1="46.099998"
       y1="433.42999"
       x2="46.400002"
       y2="433.42999"
       gradientTransform="matrix(53.529009,41.431646,24.959413,-88.863403,-13281.61,36613.21)"
       gradientUnits="userSpaceOnUse">
      <stop
         offset="0"
         stop-color="#036564"
         id="stop4" />
      <stop
         offset="1"
         stop-color="#033649"
         id="stop6" />
    </linearGradient>
  </defs>
  <g
     class="cls-2"
     id="g25"
     transform="matrix(5.625,0,0,5.625,-24.612704,-23.647991)">
    <g
       id="Capa_1">
      <g
         id="g22">
        <rect
           style="fill:#1a1a1a;stroke-width:0.124257"
           id="rect333"
           width="22.856699"
           height="23.661512"
           x="4.3755918"
           y="4.2040873"
           rx="0"
           ry="2.3339586" />
        <g
           id="_4e715b6a-a66f-4bee-a128-c1ee10ea6190">
          <path
             class="cls-5"
             d="m 8.01,19.6 c -0.08,0.43 -0.16,0.87 -0.26,1.3 -0.09,0.43 -0.18,0.87 -0.26,1.31 -0.08,0.45 -0.12,0.9 -0.12,1.35 0,0.51 0.08,0.98 0.24,1.41 0.16,0.43 0.39,0.81 0.69,1.13 0.3,0.32 0.67,0.57 1.11,0.75 0.44,0.18 0.93,0.27 1.48,0.27 h 0.69 V 26.6 c 0,-0.09 -0.04,-0.16 -0.11,-0.21 -0.07,-0.05 -0.14,-0.08 -0.21,-0.08 h -0.41 c -0.36,0 -0.68,-0.06 -0.98,-0.19 C 9.58,26 9.32,25.82 9.11,25.58 8.9,25.35 8.73,25.06 8.61,24.73 8.49,24.4 8.43,24.03 8.43,23.62 8.43,23.15 8.47,22.7 8.54,22.25 8.61,21.8 8.7,21.36 8.79,20.91 8.88,20.47 8.96,20.03 9.04,19.59 9.12,19.15 9.15,18.71 9.15,18.27 9.15,17.96 9.1,17.68 8.99,17.43 8.89,17.18 8.75,16.96 8.58,16.76 8.41,16.57 8.21,16.4 7.99,16.27 7.78,16.14 7.54,16.05 7.3,16 7.54,15.94 7.78,15.85 7.99,15.72 8.21,15.59 8.41,15.43 8.58,15.24 8.76,15.04 8.89,14.81 8.99,14.57 9.09,14.31 9.15,14.03 9.15,13.72 9.15,13.28 9.11,12.84 9.04,12.4 8.97,11.96 8.88,11.52 8.79,11.09 8.7,10.65 8.61,10.21 8.54,9.76 8.46,9.3 8.43,8.84 8.43,8.37 8.43,7.96 8.49,7.59 8.61,7.26 8.73,6.93 8.9,6.64 9.11,6.41 9.32,6.18 9.58,5.99 9.87,5.87 10.17,5.74 10.49,5.68 10.85,5.68 h 0.41 c 0.07,0 0.14,-0.03 0.21,-0.08 0.07,-0.05 0.11,-0.12 0.11,-0.21 V 4.87 H 10.89 C 10.34,4.87 9.85,4.96 9.41,5.14 8.97,5.32 8.6,5.57 8.3,5.89 8,6.21 7.77,6.59 7.61,7.02 7.45,7.45 7.37,7.92 7.37,8.43 c 0,0.47 0.04,0.92 0.12,1.35 0.08,0.44 0.16,0.87 0.26,1.31 0.09,0.43 0.18,0.87 0.26,1.3 0.08,0.43 0.12,0.88 0.12,1.34 0,0.28 -0.05,0.53 -0.14,0.76 -0.09,0.23 -0.22,0.43 -0.39,0.6 -0.17,0.17 -0.38,0.3 -0.62,0.39 -0.24,0.09 -0.51,0.14 -0.8,0.14 v 0.76 c 0.29,0 0.56,0.05 0.8,0.14 0.24,0.09 0.45,0.22 0.62,0.39 0.17,0.17 0.3,0.37 0.39,0.6 0.09,0.23 0.14,0.48 0.14,0.76 0,0.46 -0.04,0.9 -0.12,1.34 z m 15.22,-2.09 c 0.09,-0.22 0.22,-0.43 0.39,-0.6 0.17,-0.17 0.38,-0.31 0.61,-0.39 0.24,-0.09 0.5,-0.14 0.79,-0.14 v -0.76 c -0.29,0 -0.55,-0.05 -0.79,-0.14 -0.23,-0.09 -0.44,-0.22 -0.61,-0.39 -0.17,-0.17 -0.31,-0.37 -0.39,-0.6 -0.09,-0.23 -0.14,-0.48 -0.14,-0.76 0,-0.46 0.04,-0.9 0.12,-1.34 0.08,-0.43 0.16,-0.87 0.26,-1.3 0.09,-0.43 0.18,-0.87 0.26,-1.31 0.08,-0.45 0.12,-0.9 0.12,-1.36 0,-0.51 -0.08,-0.98 -0.24,-1.41 C 23.45,6.58 23.22,6.2 22.92,5.88 22.62,5.56 22.25,5.31 21.81,5.13 21.37,4.95 20.88,4.86 20.33,4.86 h -0.69 v 0.52 c 0,0.09 0.03,0.16 0.1,0.21 0.07,0.05 0.14,0.08 0.21,0.08 h 0.41 c 0.36,0 0.68,0.06 0.98,0.19 0.29,0.12 0.55,0.31 0.76,0.54 0.21,0.23 0.38,0.52 0.5,0.85 0.12,0.33 0.18,0.7 0.18,1.11 0,0.48 -0.04,0.94 -0.11,1.39 -0.07,0.45 -0.16,0.89 -0.25,1.33 -0.09,0.44 -0.17,0.88 -0.25,1.31 -0.07,0.44 -0.11,0.88 -0.11,1.32 0,0.31 0.05,0.59 0.15,0.85 0.09,0.25 0.23,0.48 0.41,0.67 0.17,0.19 0.37,0.35 0.59,0.48 0.22,0.13 0.45,0.22 0.69,0.28 -0.24,0.05 -0.48,0.14 -0.69,0.27 -0.22,0.13 -0.42,0.29 -0.59,0.49 -0.17,0.2 -0.31,0.43 -0.41,0.67 -0.1,0.25 -0.15,0.54 -0.15,0.84 0,0.44 0.04,0.88 0.11,1.32 0.07,0.44 0.16,0.88 0.25,1.32 0.09,0.44 0.18,0.89 0.25,1.34 0.08,0.45 0.11,0.91 0.11,1.37 0,0.41 -0.06,0.78 -0.18,1.11 -0.12,0.33 -0.29,0.62 -0.5,0.85 -0.21,0.23 -0.47,0.42 -0.76,0.54 -0.3,0.12 -0.62,0.19 -0.98,0.19 h -0.41 c -0.07,0 -0.15,0.03 -0.21,0.08 -0.07,0.05 -0.1,0.12 -0.1,0.21 v 0.52 h 0.69 c 0.55,0 1.04,-0.09 1.48,-0.27 0.44,-0.18 0.81,-0.43 1.11,-0.75 0.3,-0.32 0.53,-0.7 0.69,-1.13 0.16,-0.43 0.24,-0.9 0.24,-1.41 0,-0.47 -0.04,-0.92 -0.12,-1.36 -0.08,-0.44 -0.16,-0.87 -0.26,-1.31 -0.09,-0.43 -0.18,-0.86 -0.26,-1.3 -0.08,-0.44 -0.12,-0.89 -0.12,-1.34 0,-0.28 0.05,-0.53 0.14,-0.76 v 0 z"
             id="path16"
             style="fill:url(#Degradado_sin_nombre)" />
        </g>
        <rect
           style="fill:none;stroke-width:0.177778"
           id="rect273"
           width="21.359787"
           height="5.7573547"
           x="24.699051"
           y="4.0301485"
           rx="16"
           ry="5.7573547" />
        <rect
           style="fill:none;stroke-width:0.177778"
           id="rect275"
           width="16.063019"
           height="3.3392656"
           x="17.156918"
           y="2.4180889"
           rx="16"
           ry="3.3392656" />
        <rect
           style="fill:none;stroke-width:0.177778"
           id="rect277"
           width="13.241917"
           height="1.6120594"
           x="22.914272"
           y="6.5633845"
           rx="16"
           ry="1.6120594" />
        <rect
           style="fill:none;stroke-width:0.177778"
           id="rect279"
           width="31.895744"
           height="31.895744"
           x="0.11514709"
           y="0.11514709"
           rx="14.364599"
           ry="12.090445" />
        <g
           id="_1bea4e54-82d5-4383-ab44-9c59299aabf6">
          <path
             class="cls-1"
             d="m 12.73,20.28 h 0.89 v -1.29 h 0.04 c 0.45,0.88 1.29,1.48 2.51,1.48 2,0 3.21,-1.52 3.21,-4.23 0,-2.71 -1.21,-4.23 -3.21,-4.23 -1.22,0 -2.06,0.59 -2.51,1.47 H 13.62 V 8.69 h -0.89 z m 3.14,-0.62 c -1.21,0 -2.25,-0.68 -2.25,-1.82 v -3.2 c 0,-1.14 1.04,-1.83 2.25,-1.83 1.63,0 2.55,1.12 2.55,2.86 v 1.13 c 0,1.76 -0.92,2.86 -2.55,2.86 z"
             id="path13" />
        </g>
        <g
           id="_4e715b6a-a66f-4bee-a128-c1ee10ea6190-2"
           class="cls-4">
          <path
             class="cls-1"
             d="m 8.01,19.6 c -0.08,0.43 -0.16,0.87 -0.26,1.3 -0.09,0.43 -0.18,0.87 -0.26,1.31 -0.08,0.45 -0.12,0.9 -0.12,1.35 0,0.51 0.08,0.98 0.24,1.41 0.16,0.43 0.39,0.81 0.69,1.13 0.3,0.32 0.67,0.57 1.11,0.75 0.44,0.18 0.93,0.27 1.48,0.27 h 0.69 V 26.6 c 0,-0.09 -0.04,-0.16 -0.11,-0.21 -0.07,-0.05 -0.14,-0.08 -0.21,-0.08 h -0.41 c -0.36,0 -0.68,-0.06 -0.98,-0.19 C 9.58,26 9.32,25.82 9.11,25.58 8.9,25.35 8.73,25.06 8.61,24.73 8.49,24.4 8.43,24.03 8.43,23.62 8.43,23.15 8.47,22.7 8.54,22.25 8.61,21.8 8.7,21.36 8.79,20.91 8.88,20.47 8.96,20.03 9.04,19.59 9.12,19.15 9.15,18.71 9.15,18.27 9.15,17.96 9.1,17.68 8.99,17.43 8.89,17.18 8.75,16.96 8.58,16.76 8.41,16.57 8.21,16.4 7.99,16.27 7.78,16.14 7.54,16.05 7.3,16 7.54,15.94 7.78,15.85 7.99,15.72 8.21,15.59 8.41,15.43 8.58,15.24 8.76,15.04 8.89,14.81 8.99,14.57 9.09,14.31 9.15,14.03 9.15,13.72 9.15,13.28 9.11,12.84 9.04,12.4 8.97,11.96 8.88,11.52 8.79,11.09 8.7,10.65 8.61,10.21 8.54,9.76 8.46,9.3 8.43,8.84 8.43,8.37 8.43,7.96 8.49,7.59 8.61,7.26 8.73,6.93 8.9,6.64 9.11,6.41 9.32,6.18 9.58,5.99 9.87,5.87 10.17,5.74 10.49,5.68 10.85,5.68 h 0.41 c 0.07,0 0.14,-0.03 0.21,-0.08 0.07,-0.05 0.11,-0.12 0.11,-0.21 V 4.87 H 10.89 C 10.34,4.87 9.85,4.96 9.41,5.14 8.97,5.32 8.6,5.57 8.3,5.89 8,6.21 7.77,6.59 7.61,7.02 7.45,7.45 7.37,7.92 7.37,8.43 c 0,0.47 0.04,0.92 0.12,1.35 0.08,0.44 0.16,0.87 0.26,1.31 0.09,0.43 0.18,0.87 0.26,1.3 0.08,0.43 0.12,0.88 0.12,1.34 0,0.28 -0.05,0.53 -0.14,0.76 -0.09,0.23 -0.22,0.43 -0.39,0.6 -0.17,0.17 -0.38,0.3 -0.62,0.39 -0.24,0.09 -0.51,0.14 -0.8,0.14 v 0.76 c 0.29,0 0.56,0.05 0.8,0.14 0.24,0.09 0.45,0.22 0.62,0.39 0.17,0.17 0.3,0.37 0.39,0.6 0.09,0.23 0.14,0.48 0.14,0.76 0,0.46 -0.04,0.9 -0.12,1.34 z m 15.22,-2.09 c 0.09,-0.22 0.22,-0.43 0.39,-0.6 0.17,-0.17 0.38,-0.31 0.61,-0.39 0.24,-0.09 0.5,-0.14 0.79,-0.14 v -0.76 c -0.29,0 -0.55,-0.05 -0.79,-0.14 -0.23,-0.09 -0.44,-0.22 -0.61,-0.39 -0.17,-0.17 -0.31,-0.37 -0.39,-0.6 -0.09,-0.23 -0.14,-0.48 -0.14,-0.76 0,-0.46 0.04,-0.9 0.12,-1.34 0.08,-0.43 0.16,-0.87 0.26,-1.3 0.09,-0.43 0.18,-0.87 0.26,-1.31 0.08,-0.45 0.12,-0.9 0.12,-1.36 0,-0.51 -0.08,-0.98 -0.24,-1.41 C 23.45,6.58 23.22,6.2 22.92,5.88 22.62,5.56 22.25,5.31 21.81,5.13 21.37,4.95 20.88,4.86 20.33,4.86 h -0.69 v 0.52 c 0,0.09 0.03,0.16 0.1,0.21 0.07,0.05 0.14,0.08 0.21,0.08 h 0.41 c 0.36,0 0.68,0.06 0.98,0.19 0.29,0.12 0.55,0.31 0.76,0.54 0.21,0.23 0.38,0.52 0.5,0.85 0.12,0.33 0.18,0.7 0.18,1.11 0,0.48 -0.04,0.94 -0.11,1.39 -0.07,0.45 -0.16,0.89 -0.25,1.33 -0.09,0.44 -0.17,0.88 -0.25,1.31 -0.07,0.44 -0.11,0.88 -0.11,1.32 0,0.31 0.05,0.59 0.15,0.85 0.09,0.25 0.23,0.48 0.41,0.67 0.17,0.19 0.37,0.35 0.59,0.48 0.22,0.13 0.45,0.22 0.69,0.28 -0.24,0.05 -0.48,0.14 -0.69,0.27 -0.22,0.13 -0.42,0.29 -0.59,0.49 -0.17,0.2 -0.31,0.43 -0.41,0.67 -0.1,0.25 -0.15,0.54 -0.15,0.84 0,0.44 0.04,0.88 0.11,1.32 0.07,0.44 0.16,0.88 0.25,1.32 0.09,0.44 0.18,0.89 0.25,1.34 0.08,0.45 0.11,0.91 0.11,1.37 0,0.41 -0.06,0.78 -0.18,1.11 -0.12,0.33 -0.29,0.62 -0.5,0.85 -0.21,0.23 -0.47,0.42 -0.76,0.54 -0.3,0.12 -0.62,0.19 -0.98,0.19 h -0.41 c -0.07,0 -0.15,0.03 -0.21,0.08 -0.07,0.05 -0.1,0.12 -0.1,0.21 v 0.52 h 0.69 c 0.55,0 1.04,-0.09 1.48,-0.27 0.44,-0.18 0.81,-0.43 1.11,-0.75 0.3,-0.32 0.53,-0.7 0.69,-1.13 0.16,-0.43 0.24,-0.9 0.24,-1.41 0,-0.47 -0.04,-0.92 -0.12,-1.36 -0.08,-0.44 -0.16,-0.87 -0.26,-1.31 -0.09,-0.43 -0.18,-0.86 -0.26,-1.3 -0.08,-0.44 -0.12,-0.89 -0.12,-1.34 0,-0.28 0.05,-0.53 0.14,-0.76 v 0 z"
             id="path19" />
        </g>
      </g>
    </g>
  </g>
</svg>
