<?xml version="1.0" standalone="no"?>
<!DOCTYPE svg PUBLIC "-//W3C//DTD SVG 20010904//EN"
 "http://www.w3.org/TR/2001/REC-SVG-20010904/DTD/svg10.dtd">
<svg version="1.0" xmlns="http://www.w3.org/2000/svg"
 width="700.000000pt" height="700.000000pt" viewBox="0 0 700.000000 700.000000"
 preserveAspectRatio="xMidYMid meet">
<metadata>
Created by potrace 1.14, written by Peter Selinger 2001-2017
</metadata>
<g transform="translate(0.000000,700.000000) scale(0.100000,-0.100000)"
fill="#000000" stroke="none">
<path d="M1389 6984 c-566 -84 -954 -490 -1026 -1074 -13 -105 -6 -410 12
-512 2 -13 9 -52 15 -88 11 -70 16 -98 26 -145 4 -16 8 -39 10 -50 1 -11 19
-99 39 -195 20 -96 40 -199 45 -228 5 -30 12 -61 15 -71 2 -9 7 -30 9 -46 2
-17 8 -57 14 -90 17 -89 24 -178 24 -290 0 -133 -24 -200 -96 -271 -81 -79
-131 -91 -383 -93 l-93 -1 0 -330 0 -330 108 -1 c230 -1 289 -16 368 -94 76
-74 97 -137 95 -285 -2 -137 -9 -206 -31 -325 -5 -27 -12 -63 -14 -79 -3 -16
-10 -52 -16 -80 -6 -28 -12 -62 -15 -76 -7 -34 -44 -220 -50 -247 -18 -84 -23
-110 -30 -153 -3 -19 -8 -42 -10 -50 -5 -16 -9 -41 -24 -140 -37 -238 -33
-518 8 -700 77 -342 292 -632 585 -790 200 -107 377 -145 698 -149 l207 -2 1
316 0 316 -47 21 c-38 17 -72 21 -182 24 -77 2 -161 11 -196 19 -175 45 -308
204 -343 410 -14 82 -6 365 13 485 18 107 58 323 84 450 17 80 33 161 36 180
8 50 24 141 30 169 37 193 47 479 21 614 -30 154 -115 318 -228 442 l-50 55
56 61 c86 92 173 242 201 344 5 17 9 32 10 35 1 3 5 25 9 50 5 25 10 54 12 65
5 24 5 267 0 310 -2 17 -6 62 -10 100 -4 39 -9 77 -11 85 -2 8 -7 35 -10 60
-4 25 -15 88 -25 140 -11 52 -21 106 -23 120 -4 20 -29 147 -62 310 -13 64
-46 271 -52 325 -8 80 -10 340 -2 387 30 174 134 324 267 385 29 14 58 26 65
27 60 12 120 18 222 20 96 2 130 7 168 24 l47 21 0 316 0 316 -202 -2 c-112
-1 -242 -8 -289 -15z"/>
<path d="M4975 6783 c2 -216 2 -218 30 -278 33 -71 80 -117 154 -152 47 -23
70 -27 170 -29 127 -3 190 -9 236 -22 167 -50 288 -199 325 -402 13 -67 15
-254 5 -344 -3 -28 -8 -73 -11 -101 -8 -70 -29 -187 -75 -420 -22 -110 -42
-216 -45 -235 -3 -19 -9 -51 -14 -70 -8 -32 -24 -129 -36 -220 -3 -19 -7 -51
-10 -70 -10 -71 -13 -366 -4 -405 5 -22 12 -56 15 -75 21 -125 112 -294 219
-408 l49 -53 -30 -32 c-91 -97 -117 -134 -171 -243 -67 -132 -86 -221 -86
-414 -1 -191 8 -284 49 -515 7 -35 55 -281 61 -310 2 -11 11 -58 20 -105 9
-47 18 -94 20 -105 2 -11 6 -33 9 -50 2 -16 6 -40 9 -52 2 -11 8 -43 12 -70 3
-26 8 -56 10 -65 6 -34 16 -194 17 -268 2 -289 -113 -491 -323 -565 -56 -20
-108 -26 -250 -29 -125 -3 -181 -20 -243 -72 -95 -79 -110 -136 -111 -398 l-1
-201 280 0 c339 0 379 4 541 51 443 128 750 481 833 961 15 86 18 147 16 298
-1 105 -5 201 -8 215 -3 14 -8 52 -12 85 -3 33 -8 67 -10 75 -2 8 -11 53 -19
100 -8 47 -34 175 -56 285 -97 472 -105 527 -105 720 0 103 4 139 18 174 39
95 113 159 218 186 29 8 55 14 58 13 3 0 66 0 139 1 l132 1 0 330 0 330 -82 1
c-142 1 -232 7 -266 18 -55 17 -118 58 -150 98 -56 71 -66 106 -68 248 -2 161
12 268 78 590 11 55 22 109 24 120 3 19 18 88 29 145 3 14 10 50 16 80 6 30
16 87 24 125 8 39 17 97 21 130 3 33 8 69 11 80 3 11 6 103 8 205 3 167 -8
307 -29 377 -3 10 -7 29 -10 43 -2 14 -16 61 -31 105 -89 269 -275 501 -510
636 -64 37 -226 109 -245 109 -6 0 -32 7 -58 15 -95 30 -236 42 -513 44 l-275
2 1 -218z"/>
<path d="M2258 5953 c-2 -10 -3 -976 -3 -2148 l1 -2130 164 0 164 0 13 45 c7
25 15 54 17 65 2 11 18 75 35 143 17 68 31 125 31 128 0 2 8 4 18 4 9 0 36
-24 60 -54 83 -103 207 -203 331 -266 55 -27 185 -74 233 -84 101 -20 130 -25
183 -32 92 -10 271 -8 360 5 93 14 236 50 249 62 6 5 16 9 23 9 21 0 143 61
203 102 78 53 170 135 216 192 21 27 44 54 51 61 26 27 97 146 138 231 67 141
112 297 149 516 28 168 28 581 0 768 -53 354 -169 623 -359 828 -172 185 -383
292 -670 338 -77 12 -291 11 -395 -2 -292 -36 -536 -166 -706 -376 -30 -38
-59 -66 -63 -63 -5 2 -7 19 -5 37 14 154 29 1585 16 1626 -3 9 -57 12 -227 12
-204 0 -223 -1 -227 -17z m1465 -1597 c138 -16 247 -54 342 -117 156 -105 260
-268 320 -504 13 -49 26 -115 30 -145 4 -30 9 -58 10 -61 7 -10 19 -231 19
-329 0 -166 -11 -295 -40 -465 -22 -133 -91 -314 -158 -415 -102 -153 -224
-241 -402 -292 -116 -32 -372 -32 -514 1 -250 57 -429 217 -518 460 -66 184
-97 406 -96 706 1 223 19 406 57 570 28 118 98 267 163 345 158 189 461 284
787 246z"/>
</g>
</svg>
