<?xml version="1.0" standalone="no"?>
<!DOCTYPE svg PUBLIC "-//W3C//DTD SVG 20010904//EN"
 "http://www.w3.org/TR/2001/REC-SVG-20010904/DTD/svg10.dtd">
<svg version="1.0" xmlns="http://www.w3.org/2000/svg"
 width="700.000000pt" height="700.000000pt" viewBox="0 0 700.000000 700.000000"
 preserveAspectRatio="xMidYMid meet">
<metadata>
Created by potrace 1.14, written by Peter Selinger 2001-2017
</metadata>
<g transform="translate(0.000000,700.000000) scale(0.100000,-0.100000)"
fill="#000000" stroke="none">
<path d="M1888 6659 c-292 -34 -561 -177 -731 -389 -116 -144 -207 -352 -238
-545 -17 -101 -17 -370 0 -495 7 -52 46 -264 87 -470 86 -433 98 -518 92 -672
-5 -132 -20 -172 -92 -235 -65 -57 -130 -73 -294 -73 l-132 0 0 -304 0 -304
148 -4 c177 -6 225 -20 292 -88 64 -64 80 -114 80 -259 0 -138 -14 -236 -80
-561 -80 -400 -98 -507 -111 -667 -25 -324 38 -609 186 -834 65 -98 211 -243
307 -303 219 -136 395 -176 776 -176 l232 0 0 226 c0 254 -4 272 -69 323 -73
57 -97 64 -251 72 -80 4 -166 14 -192 22 -140 44 -234 147 -285 312 -14 48
-18 92 -17 225 0 187 7 239 95 689 32 167 66 356 74 420 21 161 21 376 0 471
-31 136 -127 311 -218 398 l-35 34 45 46 c128 133 205 302 221 486 17 194 -2
362 -103 876 -71 365 -79 427 -80 615 0 139 3 169 23 232 28 89 92 187 154
233 79 59 125 72 295 80 137 7 159 10 208 34 62 31 122 95 130 140 3 17 5 126
3 241 l-3 210 -220 1 c-121 1 -254 -2 -297 -7z"/>
<path d="M4570 6472 c0 -224 8 -262 66 -330 19 -23 59 -53 89 -68 50 -24 71
-27 208 -34 120 -6 164 -12 209 -29 84 -33 159 -105 207 -201 53 -106 65 -186
58 -380 -6 -163 -20 -252 -107 -695 -71 -365 -75 -398 -75 -615 1 -186 2 -199
29 -280 15 -47 44 -114 63 -150 38 -71 136 -198 159 -207 11 -4 2 -19 -34 -57
-63 -67 -105 -130 -147 -219 -61 -128 -70 -179 -70 -392 1 -211 6 -255 85
-660 92 -469 94 -483 94 -685 1 -165 -1 -193 -21 -256 -29 -91 -90 -183 -153
-229 -79 -58 -144 -75 -315 -84 -123 -6 -157 -11 -191 -29 -54 -28 -127 -110
-142 -160 -8 -24 -12 -113 -12 -236 l0 -196 248 0 c163 0 279 5 342 14 393 60
708 303 849 658 71 177 97 348 88 577 -7 183 -15 233 -107 696 -74 375 -95
531 -88 653 8 131 59 211 168 261 49 22 71 25 203 29 l147 4 0 304 0 304 -133
0 c-207 0 -292 37 -351 153 -59 116 -48 273 54 789 90 446 99 511 107 699 12
312 -51 562 -197 780 -64 95 -221 245 -316 301 -223 131 -400 168 -800 168
l-214 0 0 -198z"/>
<path d="M2550 3770 l0 -1770 160 0 160 0 0 166 0 166 43 -58 c152 -204 368
-316 642 -331 693 -37 1095 518 1044 1440 -30 525 -217 885 -549 1056 -191 99
-465 125 -695 66 -161 -41 -342 -163 -442 -299 l-43 -58 0 696 0 696 -160 0
-160 0 0 -1770z m1189 449 c251 -64 422 -245 493 -524 22 -86 23 -108 23 -455
0 -347 -1 -370 -23 -455 -70 -278 -241 -459 -497 -526 -112 -29 -308 -29 -418
0 -145 38 -252 99 -337 194 -39 42 -85 140 -99 205 -7 35 -11 236 -11 585 0
585 1 595 61 707 79 148 264 260 479 290 88 12 236 3 329 -21z"/>
</g>
</svg>
