<?xml version="1.0" encoding="UTF-8" standalone="no"?>
<svg
   id="Capa_1"
   viewBox="0 0 83.07 98.07"
   version="1.1"
   sodipodi:docname="bLogo.svg"
   inkscape:version="1.2.1 (9c6d41e410, 2022-07-14)"
   width="83.07"
   height="98.07"
   xmlns:inkscape="http://www.inkscape.org/namespaces/inkscape"
   xmlns:sodipodi="http://sodipodi.sourceforge.net/DTD/sodipodi-0.dtd"
   xmlns="http://www.w3.org/2000/svg"
   xmlns:svg="http://www.w3.org/2000/svg">
  <sodipodi:namedview
     id="namedview205"
     pagecolor="#ffffff"
     bordercolor="#000000"
     borderopacity="0.25"
     inkscape:showpageshadow="2"
     inkscape:pageopacity="0.0"
     inkscape:pagecheckerboard="0"
     inkscape:deskcolor="#d1d1d1"
     showgrid="false"
     inkscape:zoom="8.9001172"
     inkscape:cx="11.62906"
     inkscape:cy="40.168011"
     inkscape:window-width="2400"
     inkscape:window-height="1271"
     inkscape:window-x="2391"
     inkscape:window-y="246"
     inkscape:window-maximized="1"
     inkscape:current-layer="Capa_1" />
  <defs
     id="defs196">
    <style
       id="style189">.cls-1{fill:#606060;}.cls-2{fill:url(#Degradado_sin_nombre);}</style>
    <linearGradient
       id="Degradado_sin_nombre"
       x1="-144.05"
       y1="569.92999"
       x2="-142.7"
       y2="569.92999"
       gradientTransform="matrix(53.529009,41.431646,24.959413,-88.863403,-6488.25,56652.3)"
       gradientUnits="userSpaceOnUse">
      <stop
         offset="0"
         stop-color="#036564"
         id="stop191" />
      <stop
         offset="1"
         stop-color="#033649"
         id="stop193" />
    </linearGradient>
  </defs>
  <g
     id="_1bea4e54-82d5-4383-ab44-9c59299aabf6"
     transform="translate(-33.47,-25.97)"
     style="fill:#ffffff">
    <path
       class="cls-1"
       d="m 62.33,93.88 h 3.94 v -5.67 h 0.2 c 1.97,3.89 5.67,6.51 11.04,6.51 8.82,0 14.15,-6.7 14.15,-18.63 0,-11.93 -5.32,-18.63 -14.15,-18.63 -5.37,0 -9.07,2.61 -11.04,6.46 h -0.2 v -21.1 h -3.94 v 51.07 z m 13.85,-2.71 c -5.32,0 -9.91,-3.01 -9.91,-8.04 v -14.1 c 0,-5.03 4.58,-8.08 9.91,-8.08 7.2,0 11.24,4.93 11.24,12.62 v 4.98 c 0,7.74 -4.04,12.62 -11.24,12.62 z"
       id="path198"
       style="fill:#ffffff" />
  </g>
  <g
     id="_4e715b6a-a66f-4bee-a128-c1ee10ea6190"
     transform="translate(-33.47,-25.97)">
    <path
       class="cls-2"
       d="m 41.53,90.88 c -0.35,1.91 -0.72,3.82 -1.13,5.72 -0.4,1.91 -0.78,3.83 -1.13,5.75 -0.35,1.97 -0.53,3.97 -0.52,5.97 0,2.24 0.35,4.31 1.05,6.22 0.7,1.91 1.7,3.57 3.03,4.98 1.32,1.41 2.95,2.51 4.88,3.3 1.93,0.79 4.1,1.18 6.52,1.18 h 3.03 v -2.31 c 0,-0.4 -0.16,-0.72 -0.47,-0.93 -0.31,-0.22 -0.62,-0.33 -0.91,-0.33 h -1.81 c -1.58,0 -3.02,-0.27 -4.32,-0.83 -1.28,-0.53 -2.42,-1.34 -3.36,-2.37 -0.94,-1.03 -1.67,-2.27 -2.2,-3.74 -0.53,-1.47 -0.8,-3.1 -0.8,-4.9 0,-2.05 0.16,-4.07 0.5,-6.05 0.33,-1.97 0.69,-3.93 1.1,-5.89 0.4,-1.93 0.77,-3.87 1.1,-5.81 0.33,-1.93 0.5,-3.87 0.5,-5.81 0,-1.36 -0.23,-2.59 -0.69,-3.71 -0.44,-1.08 -1.05,-2.09 -1.82,-2.97 -0.74,-0.85 -1.61,-1.58 -2.59,-2.15 -0.95,-0.56 -1.98,-0.96 -3.06,-1.18 1.07,-0.26 2.1,-0.68 3.06,-1.24 0.97,-0.57 1.84,-1.28 2.59,-2.12 0.77,-0.88 1.39,-1.88 1.82,-2.97 0.46,-1.14 0.69,-2.39 0.69,-3.75 0,-1.94 -0.16,-3.88 -0.5,-5.81 -0.34,-1.93 -0.7,-3.86 -1.1,-5.78 -0.41,-1.95 -0.78,-3.9 -1.1,-5.86 -0.33,-2.02 -0.5,-4.06 -0.5,-6.11 0,-1.8 0.26,-3.43 0.8,-4.9 0.53,-1.46 1.27,-2.71 2.2,-3.74 0.93,-1.03 2.08,-1.83 3.36,-2.37 1.3,-0.55 2.74,-0.82 4.32,-0.82 h 1.81 c 0.29,0 0.6,-0.11 0.91,-0.33 0.31,-0.22 0.47,-0.53 0.47,-0.94 v -2.31 h -3.03 c -2.42,0 -4.6,0.4 -6.52,1.18 -1.93,0.79 -3.55,1.89 -4.88,3.31 -1.32,1.41 -2.33,3.07 -3.03,4.98 -0.7,1.91 -1.05,3.98 -1.05,6.22 0,2.06 0.18,4.04 0.52,5.97 0.35,1.93 0.72,3.85 1.13,5.76 0.41,1.91 0.78,3.82 1.13,5.72 0.35,1.91 0.52,3.88 0.52,5.89 0,1.21 -0.2,2.33 -0.6,3.33 -0.41,1.01 -0.98,1.89 -1.73,2.64 -0.75,0.75 -1.66,1.33 -2.72,1.73 -1.07,0.41 -2.24,0.6 -3.53,0.6 v 3.36 c 1.29,0 2.46,0.2 3.53,0.61 1.06,0.4 1.97,0.98 2.72,1.73 0.75,0.75 1.34,1.65 1.73,2.64 0.4,1.01 0.6,2.12 0.6,3.33 0,2.02 -0.17,3.98 -0.52,5.89 z m 67.08,-9.23 c 0.39,-0.99 0.98,-1.89 1.74,-2.64 0.77,-0.76 1.69,-1.36 2.7,-1.73 1.04,-0.41 2.21,-0.61 3.49,-0.61 v -3.35 c -1.28,0 -2.45,-0.2 -3.49,-0.6 -1.01,-0.38 -1.93,-0.97 -2.7,-1.73 -0.75,-0.75 -1.35,-1.65 -1.74,-2.64 -0.4,-1.01 -0.61,-2.12 -0.61,-3.33 0,-2.01 0.18,-3.98 0.52,-5.89 0.35,-1.9 0.72,-3.81 1.13,-5.72 0.4,-1.91 0.78,-3.82 1.12,-5.76 0.35,-1.97 0.53,-3.97 0.53,-5.97 0,-2.24 -0.35,-4.31 -1.05,-6.22 -0.69,-1.91 -1.7,-3.57 -3.03,-4.98 -1.32,-1.42 -2.95,-2.51 -4.87,-3.31 -1.93,-0.79 -4.1,-1.18 -6.52,-1.18 H 92.8 v 2.31 c 0,0.4 0.15,0.72 0.44,0.94 0.29,0.22 0.6,0.33 0.93,0.33 h 1.82 c 1.58,0 3.02,0.27 4.32,0.82 1.28,0.54 2.42,1.34 3.35,2.37 0.94,1.03 1.67,2.28 2.2,3.74 0.53,1.47 0.8,3.1 0.8,4.9 0,2.09 -0.16,4.13 -0.5,6.11 -0.32,1.96 -0.69,3.92 -1.1,5.86 -0.4,1.93 -0.77,3.86 -1.1,5.78 -0.33,1.92 -0.5,3.86 -0.5,5.81 0,1.36 0.22,2.61 0.67,3.75 0.41,1.09 1.01,2.1 1.79,2.97 0.74,0.84 1.62,1.55 2.59,2.12 0.97,0.57 1.99,0.98 3.06,1.24 -1.08,0.22 -2.11,0.62 -3.06,1.18 -0.97,0.57 -1.85,1.29 -2.59,2.15 -0.76,0.88 -1.36,1.89 -1.79,2.97 -0.45,1.12 -0.67,2.36 -0.67,3.72 0,1.94 0.17,3.88 0.5,5.81 0.33,1.92 0.7,3.86 1.1,5.81 0.41,1.96 0.78,3.92 1.1,5.89 0.34,2 0.5,4.02 0.5,6.05 0,1.8 -0.27,3.43 -0.8,4.9 -0.53,1.47 -1.27,2.71 -2.2,3.75 -0.93,1.02 -2.08,1.83 -3.35,2.37 -1.3,0.55 -2.74,0.82 -4.32,0.82 h -1.82 c -0.33,0 -0.64,0.11 -0.93,0.33 -0.29,0.22 -0.44,0.53 -0.44,0.94 v 2.31 h 3.03 c 2.42,0 4.6,-0.39 6.52,-1.18 1.93,-0.79 3.55,-1.89 4.87,-3.3 1.32,-1.41 2.33,-3.08 3.03,-4.99 0.7,-1.91 1.05,-3.98 1.05,-6.22 0,-2.06 -0.18,-4.05 -0.53,-5.97 -0.35,-1.92 -0.72,-3.84 -1.12,-5.75 -0.4,-1.9 -0.78,-3.81 -1.13,-5.73 -0.35,-1.94 -0.52,-3.92 -0.52,-5.89 0,-1.21 0.2,-2.32 0.61,-3.34 v 0 z"
       id="path201"
       style="fill:url(#Degradado_sin_nombre)" />
  </g>
</svg>
