<?xml version="1.0" encoding="UTF-8" standalone="no"?>
<svg
   data-v-fde0c5aa=""
   viewBox="0 0 195.68835 46.462372"
   class="iconLeft"
   version="1.1"
   id="svg51"
   sodipodi:docname="logo.svg"
   width="195.68835"
   height="46.462372"
   inkscape:version="1.2.1 (9c6d41e410, 2022-07-14)"
   xmlns:inkscape="http://www.inkscape.org/namespaces/inkscape"
   xmlns:sodipodi="http://sodipodi.sourceforge.net/DTD/sodipodi-0.dtd"
   xmlns:xlink="http://www.w3.org/1999/xlink"
   xmlns="http://www.w3.org/2000/svg"
   xmlns:svg="http://www.w3.org/2000/svg">
  <sodipodi:namedview
     id="namedview53"
     pagecolor="#ffffff"
     bordercolor="#000000"
     borderopacity="0.25"
     inkscape:showpageshadow="2"
     inkscape:pageopacity="0.0"
     inkscape:pagecheckerboard="0"
     inkscape:deskcolor="#d1d1d1"
     showgrid="false"
     inkscape:zoom="4.068221"
     inkscape:cx="76.691999"
     inkscape:cy="17.083634"
     inkscape:window-width="2400"
     inkscape:window-height="1271"
     inkscape:window-x="2391"
     inkscape:window-y="246"
     inkscape:window-maximized="1"
     inkscape:current-layer="svg51" />
  <!---->
  <defs
     data-v-fde0c5aa=""
     id="defs32">
    <linearGradient
       inkscape:collect="always"
       id="linearGradient2992">
      <stop
         style="stop-color:#069592;stop-opacity:1;"
         offset="0"
         id="stop2988" />
      <stop
         style="stop-color:#033649;stop-opacity:1;"
         offset="1"
         id="stop2990" />
    </linearGradient>
    <linearGradient
       data-v-fde0c5aa=""
       gradientTransform="rotate(25)"
       id="linearGradient771"
       x1="0"
       y1="0"
       x2="1"
       y2="0">
      <stop
         data-v-fde0c5aa=""
         offset="0"
         stop-color="#036564"
         stop-opacity="1"
         id="stop767"
         style="stop-color:#069592;stop-opacity:1;" />
      <stop
         data-v-fde0c5aa=""
         offset="1"
         stop-color="#033649 "
         stop-opacity="1"
         id="stop769"
         style="stop-color:#033649;stop-opacity:1;" />
    </linearGradient>
    <!---->
    <linearGradient
       inkscape:collect="always"
       xlink:href="#linearGradient771"
       id="linearGradient159"
       gradientTransform="scale(0.77613138,1.2884417)"
       x1="29.493717"
       y1="3.8045959"
       x2="99.34787"
       y2="3.8045959"
       gradientUnits="userSpaceOnUse" />
    <linearGradient
       inkscape:collect="always"
       xlink:href="#410b9345-2a53-4bf2-a60b-ed1727796e54"
       id="linearGradient161"
       gradientTransform="scale(0.77613138,1.2884417)"
       x1="29.493717"
       y1="3.8045959"
       x2="99.34787"
       y2="3.8045959"
       gradientUnits="userSpaceOnUse" />
    <linearGradient
       inkscape:collect="always"
       xlink:href="#linearGradient2992"
       id="linearGradient2994"
       x1="22.391001"
       y1="49.9035"
       x2="77.607002"
       y2="49.9035"
       gradientUnits="userSpaceOnUse" />
  </defs>
  <defs
     data-v-fde0c5aa=""
     id="defs36">
    <!---->
  </defs>
  <defs
     data-v-fde0c5aa=""
     id="defs46">
    <linearGradient
       data-v-fde0c5aa=""
       gradientTransform="rotate(25)"
       id="410b9345-2a53-4bf2-a60b-ed1727796e54"
       x1="0"
       y1="0"
       x2="1"
       y2="0">
      <stop
         data-v-fde0c5aa=""
         offset="0%"
         stop-color="#036564"
         stop-opacity="1"
         id="stop41" />
      <stop
         data-v-fde0c5aa=""
         offset="100%"
         stop-color="#033649 "
         stop-opacity="1"
         id="stop43" />
    </linearGradient>
  </defs>
  <g
     id="g1360">
    <g
       aria-label="borjaMartí"
       id="text250"
       style="font-size:32px;font-family:'Open Sans';-inkscape-font-specification:'Open Sans';text-align:center;text-anchor:middle;fill:#222222;stroke-width:0.3;stroke-opacity:0">
      <path
         d="m 43.641472,7.8883095 v 6.0781245 q 0,1.046875 -0.0625,2.03125 -0.04687,0.984375 -0.07813,1.53125 h 0.140625 q 0.703125,-1.15625 2.03125,-1.953125 1.328125,-0.796875 3.390625,-0.796875 3.21875,0 5.125,2.234375 1.921875,2.21875 1.921875,6.609375 0,2.890625 -0.875,4.875 -0.875,1.984375 -2.46875,3 -1.59375,1.015625 -3.765625,1.015625 -2.03125,0 -3.34375,-0.75 -1.296875,-0.765625 -2,-1.859375 h -0.203125 l -0.53125,2.296875 h -1.875 V 7.8883095 Z m 5,9.0624995 q -1.859375,0 -2.953125,0.734375 -1.09375,0.71875 -1.578125,2.1875 -0.46875,1.453125 -0.46875,3.6875 v 0.140625 q 0,3.234375 1.078125,4.953125 1.078125,1.703125 3.921875,1.703125 2.390625,0 3.578125,-1.75 1.203125,-1.75 1.203125,-5 0,-3.3125 -1.1875,-4.984375 -1.171875,-1.671875 -3.59375,-1.671875 z"
         id="path1326" />
      <path
         d="m 75.391472,23.607059 q 0,2.109375 -0.546875,3.765625 -0.546875,1.65625 -1.578125,2.796875 -1.03125,1.140625 -2.5,1.75 -1.453125,0.59375 -3.296875,0.59375 -1.71875,0 -3.15625,-0.59375 -1.421875,-0.609375 -2.46875,-1.75 -1.03125,-1.140625 -1.609375,-2.796875 -0.5625,-1.65625 -0.5625,-3.765625 0,-2.8125 0.953125,-4.78125 0.953125,-1.984375 2.71875,-3.015625 1.78125,-1.046875 4.234375,-1.046875 2.34375,0 4.09375,1.046875 1.765625,1.046875 2.734375,3.03125 0.984375,1.96875 0.984375,4.765625 z m -13.03125,0 q 0,2.0625 0.546875,3.578125 0.546875,1.515625 1.6875,2.34375 1.140625,0.828125 2.9375,0.828125 1.78125,0 2.921875,-0.828125 1.15625,-0.828125 1.703125,-2.34375 0.546875,-1.515625 0.546875,-3.578125 0,-2.046875 -0.546875,-3.53125 -0.546875,-1.5 -1.6875,-2.3125 -1.140625,-0.8125 -2.953125,-0.8125 -2.671875,0 -3.921875,1.765625 -1.234375,1.765625 -1.234375,4.890625 z"
         id="path1328" />
      <path
         d="m 87.657097,14.763309 q 0.515625,0 1.078125,0.0625 0.5625,0.04687 1,0.140625 l -0.328125,2.40625 q -0.421875,-0.109375 -0.9375,-0.171875 -0.515625,-0.0625 -0.96875,-0.0625 -1.03125,0 -1.953125,0.421875 -0.90625,0.40625 -1.59375,1.1875 -0.6875,0.765625 -1.078125,1.859375 -0.390625,1.078125 -0.390625,2.40625 v 9.1875 h -2.609375 v -17.125 h 2.15625 l 0.28125,3.15625 h 0.109375 q 0.53125,-0.953125 1.28125,-1.734375 0.75,-0.796875 1.734375,-1.265625 1,-0.46875 2.21875,-0.46875 z"
         id="path1330" />
      <path
         d="m 90.891472,39.888309 q -0.796875,0 -1.390625,-0.125 -0.59375,-0.109375 -1.03125,-0.265625 v -2.109375 q 0.484375,0.15625 0.984375,0.234375 0.5,0.09375 1.125,0.09375 1.0625,0 1.71875,-0.59375 0.65625,-0.59375 0.65625,-2.15625 V 15.075809 h 2.59375 v 19.828125 q 0,1.5625 -0.5,2.671875 -0.5,1.125 -1.53125,1.71875 -1.03125,0.59375 -2.625,0.59375 z m 1.828125,-29.515625 q 0,-0.8749995 0.4375,-1.2812495 0.453125,-0.421875 1.125,-0.421875 0.640625,0 1.09375,0.421875 0.46875,0.40625 0.46875,1.2812495 0,0.859375 -0.46875,1.28125 -0.453125,0.421875 -1.09375,0.421875 -0.671875,0 -1.125,-0.421875 -0.4375,-0.421875 -0.4375,-1.28125 z"
         id="path1332" />
      <path
         d="m 107.43835,14.794559 q 3.0625,0 4.54687,1.375 1.48438,1.375 1.48438,4.390625 v 11.640625 h -1.89063 l -0.5,-2.53125 h -0.125 q -0.71875,0.9375 -1.5,1.578125 -0.78125,0.625 -1.8125,0.953125 -1.01562,0.3125 -2.5,0.3125 -1.5625,0 -2.78125,-0.546875 -1.20312,-0.546875 -1.90625,-1.65625 -0.687498,-1.109375 -0.687498,-2.8125 0,-2.5625 2.031248,-3.9375 2.03125,-1.375 6.1875,-1.5 l 2.95313,-0.125 v -1.046875 q 0,-2.21875 -0.95313,-3.109375 -0.95312,-0.890625 -2.6875,-0.890625 -1.34375,0 -2.5625,0.390625 -1.21875,0.390625 -2.3125,0.921875 l -0.79687,-1.96875 q 1.15625,-0.59375 2.65625,-1.015625 1.5,-0.421875 3.15625,-0.421875 z m 3.46875,8.96875 -2.60938,0.109375 q -3.20312,0.125 -4.51562,1.046875 -1.3125,0.921875 -1.3125,2.609375 0,1.46875 0.89062,2.171875 0.89063,0.703125 2.35938,0.703125 2.28125,0 3.73437,-1.265625 1.45313,-1.265625 1.45313,-3.796875 z"
         id="path1334" />
      <path
         d="m 129.25085,32.200809 -7.67188,-20.21875 h -0.125 q 0.0625,0.640625 0.10938,1.5625 0.0469,0.921875 0.0781,2.015625 0.0312,1.078125 0.0312,2.203125 v 14.4375 H 119.2039 V 9.3570595 h 3.9375 l 7.23438,18.9999995 h 0.10937 L 137.8289,9.3570595 h 3.90625 V 32.200809 h -2.625 v -14.625 q 0,-1.015625 0.0312,-2.03125 0.0312,-1.03125 0.0781,-1.9375 0.0469,-0.921875 0.0937,-1.59375 h -0.125 l -7.76563,20.1875 z"
         id="path1336" />
      <path
         d="m 154.00085,14.794559 q 3.0625,0 4.54687,1.375 1.48438,1.375 1.48438,4.390625 v 11.640625 h -1.89063 l -0.5,-2.53125 h -0.125 q -0.71875,0.9375 -1.5,1.578125 -0.78125,0.625 -1.8125,0.953125 -1.01562,0.3125 -2.5,0.3125 -1.5625,0 -2.78125,-0.546875 -1.20312,-0.546875 -1.90625,-1.65625 -0.6875,-1.109375 -0.6875,-2.8125 0,-2.5625 2.03125,-3.9375 2.03125,-1.375 6.1875,-1.5 l 2.95313,-0.125 v -1.046875 q 0,-2.21875 -0.95313,-3.109375 -0.95312,-0.890625 -2.6875,-0.890625 -1.34375,0 -2.5625,0.390625 -1.21875,0.390625 -2.3125,0.921875 l -0.79687,-1.96875 q 1.15625,-0.59375 2.65625,-1.015625 1.5,-0.421875 3.15625,-0.421875 z m 3.46875,8.96875 -2.60938,0.109375 q -3.20312,0.125 -4.51562,1.046875 -1.3125,0.921875 -1.3125,2.609375 0,1.46875 0.89062,2.171875 0.89063,0.703125 2.35938,0.703125 2.28125,0 3.73437,-1.265625 1.45313,-1.265625 1.45313,-3.796875 z"
         id="path1338" />
      <path
         d="m 173.1571,14.763309 q 0.51562,0 1.07812,0.0625 0.5625,0.04687 1,0.140625 l -0.32812,2.40625 q -0.42188,-0.109375 -0.9375,-0.171875 -0.51563,-0.0625 -0.96875,-0.0625 -1.03125,0 -1.95313,0.421875 -0.90625,0.40625 -1.59375,1.1875 -0.6875,0.765625 -1.07812,1.859375 -0.39063,1.078125 -0.39063,2.40625 v 9.1875 h -2.60937 v -17.125 h 2.15625 l 0.28125,3.15625 h 0.10937 q 0.53125,-0.953125 1.28125,-1.734375 0.75,-0.796875 1.73438,-1.265625 1,-0.46875 2.21875,-0.46875 z"
         id="path1340" />
      <path
         d="m 183.98522,30.388309 q 0.64063,0 1.3125,-0.109375 0.67188,-0.109375 1.09375,-0.265625 v 2.015625 q -0.45312,0.203125 -1.26562,0.34375 -0.79688,0.140625 -1.5625,0.140625 -1.35938,0 -2.46875,-0.46875 -1.10938,-0.484375 -1.78125,-1.625 -0.65625,-1.140625 -0.65625,-3.15625 v -10.15625 h -2.4375 v -1.265625 l 2.45312,-1.015625 1.03125,-3.71875 h 1.5625 v 3.96875 h 5.01563 v 2.03125 h -5.01563 v 10.078125 q 0,1.609375 0.73438,2.40625 0.75,0.796875 1.98437,0.796875 z"
         id="path1342" />
      <path
         d="m 192.45397,32.200809 h -2.59375 v -17.125 h 2.59375 z m 3.23438,-24.5156245 v 0.3125 q -0.3125,0.453125 -0.85938,1.09375 -0.53125,0.625 -1.1875,1.3281245 -0.65625,0.6875 -1.32812,1.3125 -0.65625,0.625 -1.21875,1.078125 h -1.73438 v -0.375 q 0.5,-0.59375 1.09375,-1.421875 0.59375,-0.84375 1.15625,-1.7187495 0.5625,-0.890625 0.9375,-1.609375 z"
         id="path1344" />
    </g>
    <g
       data-v-fde0c5aa=""
       id="14599f47-263e-45e0-bd83-47948e953cd0"
       stroke="none"
       fill="url(#410b9345-2a53-4bf2-a60b-ed1727796e54)"
       transform="matrix(0.49956527,0,0,0.49956527,-10.685549,-1.6988689)"
       style="fill:url(#linearGradient161)">
      <path
         d="m 30.291,64.484 a 187.36,187.36 0 0 1 -1.035,5.254 177.841,177.841 0 0 0 -1.033,5.282 30.984,30.984 0 0 0 -0.481,5.481 c 0,2.057 0.324,3.956 0.963,5.709 0.638,1.751 1.564,3.275 2.777,4.575 1.213,1.297 2.707,2.307 4.475,3.032 1.768,0.723 3.763,1.085 5.985,1.085 h 2.781 V 92.78 c 0,-0.367 -0.145,-0.657 -0.43,-0.857 -0.289,-0.202 -0.568,-0.305 -0.838,-0.305 h -1.664 c -1.45,0 -2.771,-0.252 -3.968,-0.758 a 8.7,8.7 0 0 1 -3.08,-2.172 c -0.859,-0.946 -1.536,-2.087 -2.023,-3.437 -0.491,-1.349 -0.734,-2.845 -0.734,-4.499 0,-1.883 0.15,-3.74 0.455,-5.557 a 133.41,133.41 0 0 1 1.011,-5.407 163.77,163.77 0 0 0 1.01,-5.33 c 0.305,-1.772 0.456,-3.548 0.456,-5.333 0,-1.245 -0.212,-2.381 -0.632,-3.409 a 9.758,9.758 0 0 0 -1.668,-2.729 9.426,9.426 0 0 0 -2.374,-1.971 9.133,9.133 0 0 0 -2.807,-1.085 10.4,10.4 0 0 0 2.807,-1.139 9.801,9.801 0 0 0 2.374,-1.946 9.263,9.263 0 0 0 1.668,-2.728 c 0.42,-1.044 0.632,-2.192 0.632,-3.438 0,-1.785 -0.151,-3.561 -0.456,-5.33 -0.305,-1.769 -0.641,-3.541 -1.01,-5.309 a 128.328,128.328 0 0 1 -1.011,-5.38 33.861,33.861 0 0 1 -0.455,-5.609 c 0,-1.652 0.243,-3.149 0.734,-4.499 0.487,-1.344 1.164,-2.491 2.023,-3.434 a 8.667,8.667 0 0 1 3.08,-2.174 c 1.196,-0.506 2.518,-0.757 3.968,-0.757 h 1.664 c 0.27,0 0.549,-0.104 0.838,-0.304 0.285,-0.202 0.43,-0.49 0.43,-0.86 V 4.902 h -2.781 c -2.223,0 -4.218,0.363 -5.985,1.086 -1.768,0.728 -3.262,1.735 -4.475,3.036 -1.213,1.294 -2.14,2.821 -2.777,4.572 -0.639,1.751 -0.963,3.656 -0.963,5.709 0,1.887 0.164,3.713 0.481,5.481 0.317,1.773 0.664,3.533 1.033,5.285 0.372,1.751 0.715,3.502 1.035,5.251 0.324,1.754 0.481,3.557 0.481,5.407 0,1.115 -0.186,2.135 -0.555,3.059 -0.372,0.926 -0.901,1.735 -1.591,2.426 -0.69,0.691 -1.523,1.223 -2.499,1.592 -0.981,0.372 -2.056,0.555 -3.236,0.555 v 3.08 c 1.181,0 2.255,0.186 3.236,0.56 0.976,0.371 1.81,0.9 2.499,1.592 a 7.179,7.179 0 0 1 1.591,2.422 c 0.369,0.929 0.555,1.949 0.555,3.06 0,1.851 -0.157,3.654 -0.481,5.409 z m 39.541,-8.47 a 7.07,7.07 0 0 1 1.594,-2.42 6.943,6.943 0 0 1 2.477,-1.592 c 0.959,-0.374 2.027,-0.561 3.204,-0.561 v -3.079 c -1.177,0 -2.245,-0.185 -3.204,-0.555 a 6.97,6.97 0 0 1 -2.477,-1.592 7.09,7.09 0 0 1 -1.594,-2.426 c -0.369,-0.925 -0.556,-1.946 -0.556,-3.061 0,-1.849 0.161,-3.651 0.479,-5.407 0.32,-1.748 0.664,-3.5 1.036,-5.252 0.368,-1.751 0.715,-3.511 1.032,-5.283 a 30.63,30.63 0 0 0 0.484,-5.482 c 0,-2.053 -0.32,-3.956 -0.962,-5.709 C 70.71,11.844 69.782,10.319 68.568,9.023 67.355,7.724 65.864,6.716 64.096,5.988 62.325,5.265 60.333,4.902 58.107,4.902 h -2.78 v 2.123 c 0,0.369 0.138,0.657 0.407,0.859 0.27,0.202 0.555,0.304 0.856,0.304 h 1.668 c 1.449,0 2.771,0.251 3.968,0.757 a 8.686,8.686 0 0 1 3.079,2.176 c 0.863,0.941 1.536,2.089 2.024,3.434 0.487,1.349 0.734,2.845 0.734,4.499 0,1.922 -0.151,3.788 -0.459,5.609 a 123.647,123.647 0 0 1 -1.01,5.38 c -0.369,1.769 -0.706,3.54 -1.008,5.309 a 31.6,31.6 0 0 0 -0.459,5.33 c 0,1.245 0.206,2.393 0.613,3.438 a 8.762,8.762 0 0 0 1.639,2.727 9.722,9.722 0 0 0 2.374,1.946 c 0.892,0.521 1.831,0.899 2.807,1.139 a 9.192,9.192 0 0 0 -2.807,1.085 9.486,9.486 0 0 0 -2.374,1.97 9.361,9.361 0 0 0 -1.639,2.729 c -0.411,1.029 -0.613,2.167 -0.613,3.411 0,1.785 0.157,3.561 0.459,5.334 0.302,1.767 0.639,3.544 1.008,5.329 a 128.15,128.15 0 0 1 1.01,5.408 33.21,33.21 0 0 1 0.459,5.555 c 0,1.654 -0.247,3.15 -0.734,4.499 -0.488,1.349 -1.165,2.491 -2.024,3.438 a 8.726,8.726 0 0 1 -3.079,2.172 c -1.196,0.504 -2.519,0.757 -3.968,0.757 H 56.59 c -0.302,0 -0.591,0.104 -0.856,0.304 -0.27,0.201 -0.407,0.489 -0.407,0.859 v 2.123 h 2.78 c 2.224,0 4.219,-0.362 5.989,-1.085 1.768,-0.725 3.259,-1.737 4.472,-3.033 1.212,-1.298 2.139,-2.823 2.777,-4.576 0.642,-1.751 0.962,-3.652 0.962,-5.708 0,-1.888 -0.163,-3.715 -0.484,-5.482 a 181.626,181.626 0 0 0 -1.032,-5.28 198.198,198.198 0 0 1 -1.036,-5.256 30.342,30.342 0 0 1 -0.479,-5.407 c 0,-1.114 0.187,-2.134 0.556,-3.064 z"
         id="path48"
         style="fill:url(#linearGradient159);stroke:url(#linearGradient2994);stroke-width:3.00261;stroke-dasharray:none;stroke-opacity:1" />
    </g>
  </g>
  <!---->
</svg>
