<?xml version="1.0" encoding="UTF-8" standalone="no"?>
<svg
   data-v-fde0c5aa=""
   viewBox="0 0 219.99997 44.962372"
   class="iconLeft"
   version="1.1"
   id="svg51"
   sodipodi:docname="default.svg"
   width="219.99997"
   height="44.962372"
   inkscape:version="1.2.1 (9c6d41e410, 2022-07-14)"
   xmlns:inkscape="http://www.inkscape.org/namespaces/inkscape"
   xmlns:sodipodi="http://sodipodi.sourceforge.net/DTD/sodipodi-0.dtd"
   xmlns:xlink="http://www.w3.org/1999/xlink"
   xmlns="http://www.w3.org/2000/svg"
   xmlns:svg="http://www.w3.org/2000/svg">
  <sodipodi:namedview
     id="namedview53"
     pagecolor="#ffffff"
     bordercolor="#000000"
     borderopacity="0.25"
     inkscape:showpageshadow="2"
     inkscape:pageopacity="0.0"
     inkscape:pagecheckerboard="0"
     inkscape:deskcolor="#d1d1d1"
     showgrid="false"
     inkscape:zoom="2.8766667"
     inkscape:cx="156.43105"
     inkscape:cy="62.746234"
     inkscape:window-width="1920"
     inkscape:window-height="1121"
     inkscape:window-x="-9"
     inkscape:window-y="-9"
     inkscape:window-maximized="1"
     inkscape:current-layer="svg51" />
  <!---->
  <defs
     data-v-fde0c5aa=""
     id="defs32">
    <!---->
    <linearGradient
       inkscape:collect="always"
       xlink:href="#410b9345-2a53-4bf2-a60b-ed1727796e54"
       id="linearGradient159"
       gradientTransform="scale(0.77613138,1.2884417)"
       x1="29.493717"
       y1="3.8045959"
       x2="99.34787"
       y2="3.8045959"
       gradientUnits="userSpaceOnUse" />
    <linearGradient
       inkscape:collect="always"
       xlink:href="#410b9345-2a53-4bf2-a60b-ed1727796e54"
       id="linearGradient161"
       gradientTransform="scale(0.77613138,1.2884417)"
       x1="29.493717"
       y1="3.8045959"
       x2="99.34787"
       y2="3.8045959"
       gradientUnits="userSpaceOnUse" />
  </defs>
  <defs
     data-v-fde0c5aa=""
     id="defs36">
    <!---->
  </defs>
  <g
     data-v-fde0c5aa=""
     id="92e9b7d5-11e4-4036-a10a-b93e058ba3b3"
     fill="#ffffff"
     transform="matrix(2.2024183,0,0,2.2024183,36.780794,-0.3028389)"
     sodipodi:insensitive="true">
    <path
       d="M 1.5,14.35 H 2.3 V 13.2 h 0.04 c 0.4,0.79 1.15,1.32 2.24,1.32 1.79,0 2.87,-1.36 2.87,-3.78 C 7.45,8.32 6.37,6.96 4.58,6.96 3.49,6.96 2.74,7.49 2.34,8.27 H 2.3 V 3.99 H 1.5 Z M 4.31,13.8 C 3.23,13.8 2.3,13.19 2.3,12.17 V 9.31 c 0,-1.02 0.93,-1.64 2.01,-1.64 1.46,0 2.28,1 2.28,2.56 v 1.01 c 0,1.57 -0.82,2.56 -2.28,2.56 z m 8.29,0.72 c 1.96,0 3.15,-1.4 3.15,-3.78 0,-2.38 -1.19,-3.78 -3.15,-3.78 -1.96,0 -3.15,1.4 -3.15,3.78 0,2.38 1.19,3.78 3.15,3.78 z m 0,-0.7 c -1.41,0 -2.3,-0.93 -2.3,-2.63 v -0.9 c 0,-1.71 0.89,-2.63 2.3,-2.63 1.41,0 2.3,0.92 2.3,2.63 v 0.9 c 0,1.7 -0.89,2.63 -2.3,2.63 z m 5.29,0.53 h 6.01 v -0.69 h -2.94 v -3.61 c 0,-1.3 0.87,-2.14 2.17,-2.14 h 1.48 V 7.13 h -1.24 c -1.43,0 -2.06,0.77 -2.36,1.65 H 20.96 V 7.13 h -3.07 v 0.68 h 2.27 v 5.85 h -2.27 z m 8.79,2.8 h 3.41 c 0.78,0 1.13,-0.46 1.13,-1.16 V 7.13 h -4.7 v 0.68 h 3.9 v 8.65 H 26.68 Z M 30.83,5.19 c 0.5,0 0.68,-0.23 0.68,-0.56 V 4.45 c 0,-0.32 -0.18,-0.56 -0.68,-0.56 -0.51,0 -0.7,0.24 -0.7,0.56 v 0.18 c 0,0.33 0.19,0.56 0.7,0.56 z m 10.37,9.16 v -0.7 H 40.12 V 9.37 c 0,-1.52 -1,-2.41 -2.63,-2.41 -1.4,0 -2.28,0.66 -2.66,1.48 l 0.55,0.39 c 0.39,-0.78 1.08,-1.19 2.07,-1.19 1.18,0 1.88,0.61 1.88,1.81 v 0.88 h -1.77 c -2.15,0 -2.97,0.8 -2.97,2.07 0,1.33 0.93,2.12 2.44,2.12 1.25,0 1.95,-0.55 2.27,-1.3 h 0.07 v 0.25 c 0.04,0.53 0.29,0.88 0.94,0.88 z m -4.04,-0.5 c -1.04,0 -1.73,-0.45 -1.73,-1.28 v -0.36 c 0,-0.79 0.63,-1.28 2.13,-1.28 h 1.77 v 1.33 c 0,0.97 -0.96,1.59 -2.17,1.59 z m 11.42,0.5 h 0.77 V 4.58 H 48.29 L 46.26,9.41 H 46.19 L 44.14,4.58 h -1.09 v 9.77 h 0.77 V 5.84 h 0.08 l 2.3,5.36 2.3,-5.36 h 0.08 z m 9.42,0 v -0.7 H 56.92 V 9.37 c 0,-1.52 -1,-2.41 -2.63,-2.41 -1.4,0 -2.28,0.66 -2.66,1.48 l 0.55,0.39 c 0.39,-0.78 1.08,-1.19 2.07,-1.19 1.18,0 1.88,0.61 1.88,1.81 v 0.88 h -1.77 c -2.15,0 -2.97,0.8 -2.97,2.07 0,1.33 0.93,2.12 2.44,2.12 1.25,0 1.95,-0.55 2.27,-1.3 h 0.07 v 0.25 c 0.04,0.53 0.29,0.88 0.94,0.88 z m -4.04,-0.5 c -1.04,0 -1.73,-0.45 -1.73,-1.28 v -0.36 c 0,-0.79 0.63,-1.28 2.13,-1.28 h 1.77 v 1.33 c 0,0.97 -0.96,1.59 -2.17,1.59 z m 5.93,0.5 h 6.01 v -0.69 h -2.94 v -3.61 c 0,-1.3 0.87,-2.14 2.17,-2.14 h 1.48 V 7.13 h -1.24 c -1.43,0 -2.06,0.77 -2.36,1.65 H 62.96 V 7.13 h -3.07 v 0.68 h 2.27 v 5.85 h -2.27 z m 14.65,0 V 13.66 H 71.09 V 7.81 h 3.45 V 7.13 H 71.09 V 4.58 h -0.77 v 1.99 c 0,0.4 -0.15,0.56 -0.56,0.56 h -2.03 v 0.68 h 2.56 v 5.38 c 0,0.7 0.37,1.16 1.14,1.16 z m 7.21,-10.44 -0.73,-0.37 -1.33,2.3 0.52,0.25 z m -4.61,10.44 h 6.05 V 13.66 H 80.65 V 7.13 h -3.51 v 0.68 h 2.72 v 5.85 h -2.72 z"
       id="path38" />
  </g>
  <defs
     data-v-fde0c5aa=""
     id="defs46">
    <linearGradient
       data-v-fde0c5aa=""
       gradientTransform="rotate(25)"
       id="410b9345-2a53-4bf2-a60b-ed1727796e54"
       x1="0"
       y1="0"
       x2="1"
       y2="0">
      <stop
         data-v-fde0c5aa=""
         offset="0%"
         stop-color="#036564"
         stop-opacity="1"
         id="stop41" />
      <stop
         data-v-fde0c5aa=""
         offset="100%"
         stop-color="#033649 "
         stop-opacity="1"
         id="stop43" />
    </linearGradient>
  </defs>
  <g
     data-v-fde0c5aa=""
     id="14599f47-263e-45e0-bd83-47948e953cd0"
     stroke="none"
     fill="url(#410b9345-2a53-4bf2-a60b-ed1727796e54)"
     transform="matrix(0.49956527,0,0,0.49956527,-11.435549,-2.448869)"
     style="fill:url(#linearGradient161)"
     sodipodi:insensitive="true">
    <path
       d="m 30.291,64.484 a 187.36,187.36 0 0 1 -1.035,5.254 177.841,177.841 0 0 0 -1.033,5.282 30.984,30.984 0 0 0 -0.481,5.481 c 0,2.057 0.324,3.956 0.963,5.709 0.638,1.751 1.564,3.275 2.777,4.575 1.213,1.297 2.707,2.307 4.475,3.032 1.768,0.723 3.763,1.085 5.985,1.085 h 2.781 V 92.78 c 0,-0.367 -0.145,-0.657 -0.43,-0.857 -0.289,-0.202 -0.568,-0.305 -0.838,-0.305 h -1.664 c -1.45,0 -2.771,-0.252 -3.968,-0.758 a 8.7,8.7 0 0 1 -3.08,-2.172 c -0.859,-0.946 -1.536,-2.087 -2.023,-3.437 -0.491,-1.349 -0.734,-2.845 -0.734,-4.499 0,-1.883 0.15,-3.74 0.455,-5.557 a 133.41,133.41 0 0 1 1.011,-5.407 163.77,163.77 0 0 0 1.01,-5.33 c 0.305,-1.772 0.456,-3.548 0.456,-5.333 0,-1.245 -0.212,-2.381 -0.632,-3.409 a 9.758,9.758 0 0 0 -1.668,-2.729 9.426,9.426 0 0 0 -2.374,-1.971 9.133,9.133 0 0 0 -2.807,-1.085 10.4,10.4 0 0 0 2.807,-1.139 9.801,9.801 0 0 0 2.374,-1.946 9.263,9.263 0 0 0 1.668,-2.728 c 0.42,-1.044 0.632,-2.192 0.632,-3.438 0,-1.785 -0.151,-3.561 -0.456,-5.33 -0.305,-1.769 -0.641,-3.541 -1.01,-5.309 a 128.328,128.328 0 0 1 -1.011,-5.38 33.861,33.861 0 0 1 -0.455,-5.609 c 0,-1.652 0.243,-3.149 0.734,-4.499 0.487,-1.344 1.164,-2.491 2.023,-3.434 a 8.667,8.667 0 0 1 3.08,-2.174 c 1.196,-0.506 2.518,-0.757 3.968,-0.757 h 1.664 c 0.27,0 0.549,-0.104 0.838,-0.304 0.285,-0.202 0.43,-0.49 0.43,-0.86 V 4.902 h -2.781 c -2.223,0 -4.218,0.363 -5.985,1.086 -1.768,0.728 -3.262,1.735 -4.475,3.036 -1.213,1.294 -2.14,2.821 -2.777,4.572 -0.639,1.751 -0.963,3.656 -0.963,5.709 0,1.887 0.164,3.713 0.481,5.481 0.317,1.773 0.664,3.533 1.033,5.285 0.372,1.751 0.715,3.502 1.035,5.251 0.324,1.754 0.481,3.557 0.481,5.407 0,1.115 -0.186,2.135 -0.555,3.059 -0.372,0.926 -0.901,1.735 -1.591,2.426 -0.69,0.691 -1.523,1.223 -2.499,1.592 -0.981,0.372 -2.056,0.555 -3.236,0.555 v 3.08 c 1.181,0 2.255,0.186 3.236,0.56 0.976,0.371 1.81,0.9 2.499,1.592 a 7.179,7.179 0 0 1 1.591,2.422 c 0.369,0.929 0.555,1.949 0.555,3.06 0,1.851 -0.157,3.654 -0.481,5.409 z m 39.541,-8.47 a 7.07,7.07 0 0 1 1.594,-2.42 6.943,6.943 0 0 1 2.477,-1.592 c 0.959,-0.374 2.027,-0.561 3.204,-0.561 v -3.079 c -1.177,0 -2.245,-0.185 -3.204,-0.555 a 6.97,6.97 0 0 1 -2.477,-1.592 7.09,7.09 0 0 1 -1.594,-2.426 c -0.369,-0.925 -0.556,-1.946 -0.556,-3.061 0,-1.849 0.161,-3.651 0.479,-5.407 0.32,-1.748 0.664,-3.5 1.036,-5.252 0.368,-1.751 0.715,-3.511 1.032,-5.283 a 30.63,30.63 0 0 0 0.484,-5.482 c 0,-2.053 -0.32,-3.956 -0.962,-5.709 C 70.71,11.844 69.782,10.319 68.568,9.023 67.355,7.724 65.864,6.716 64.096,5.988 62.325,5.265 60.333,4.902 58.107,4.902 h -2.78 v 2.123 c 0,0.369 0.138,0.657 0.407,0.859 0.27,0.202 0.555,0.304 0.856,0.304 h 1.668 c 1.449,0 2.771,0.251 3.968,0.757 a 8.686,8.686 0 0 1 3.079,2.176 c 0.863,0.941 1.536,2.089 2.024,3.434 0.487,1.349 0.734,2.845 0.734,4.499 0,1.922 -0.151,3.788 -0.459,5.609 a 123.647,123.647 0 0 1 -1.01,5.38 c -0.369,1.769 -0.706,3.54 -1.008,5.309 a 31.6,31.6 0 0 0 -0.459,5.33 c 0,1.245 0.206,2.393 0.613,3.438 a 8.762,8.762 0 0 0 1.639,2.727 9.722,9.722 0 0 0 2.374,1.946 c 0.892,0.521 1.831,0.899 2.807,1.139 a 9.192,9.192 0 0 0 -2.807,1.085 9.486,9.486 0 0 0 -2.374,1.97 9.361,9.361 0 0 0 -1.639,2.729 c -0.411,1.029 -0.613,2.167 -0.613,3.411 0,1.785 0.157,3.561 0.459,5.334 0.302,1.767 0.639,3.544 1.008,5.329 a 128.15,128.15 0 0 1 1.01,5.408 33.21,33.21 0 0 1 0.459,5.555 c 0,1.654 -0.247,3.15 -0.734,4.499 -0.488,1.349 -1.165,2.491 -2.024,3.438 a 8.726,8.726 0 0 1 -3.079,2.172 c -1.196,0.504 -2.519,0.757 -3.968,0.757 H 56.59 c -0.302,0 -0.591,0.104 -0.856,0.304 -0.27,0.201 -0.407,0.489 -0.407,0.859 v 2.123 h 2.78 c 2.224,0 4.219,-0.362 5.989,-1.085 1.768,-0.725 3.259,-1.737 4.472,-3.033 1.212,-1.298 2.139,-2.823 2.777,-4.576 0.642,-1.751 0.962,-3.652 0.962,-5.708 0,-1.888 -0.163,-3.715 -0.484,-5.482 a 181.626,181.626 0 0 0 -1.032,-5.28 198.198,198.198 0 0 1 -1.036,-5.256 30.342,30.342 0 0 1 -0.479,-5.407 c 0,-1.114 0.187,-2.134 0.556,-3.064 z"
       id="path48"
       style="fill:url(#linearGradient159)" />
  </g>
  <!---->
</svg>
